name Walk2.mot
datacolumns 19
datarows 20
range 1.36000000 1.45500000
endheader

                time	   L_ground_force_vx	   L_ground_force_vy	   L_ground_force_vz	   L_ground_force_px	   L_ground_force_py	   L_ground_force_pz	   R_ground_force_vx	   R_ground_force_vy	   R_ground_force_vz	   R_ground_force_px	   R_ground_force_py	   R_ground_force_pz	   L_ground_torque_x	   L_ground_torque_y	   L_ground_torque_z	   R_ground_torque_x	   R_ground_torque_y	   R_ground_torque_z	
          1.36000000	         -0.00000000	          0.00000000	         -0.00000000	          0.00000000	          0.00000000	          0.00000000	         -6.09816415	          7.76816830	         -1.38736346	         -0.10811684	          0.00000000	          0.15344775	          0.00000000	         -0.00000000	          0.00000000	          0.00000000	         -0.28980522	          0.00000000	
          1.36500000	          0.00000000	          0.00000000	         -0.00000000	         -0.00000000	          0.00000000	         -0.00000000	        -24.62512398	         81.48438043	         -1.89945310	         -0.21310582	          0.00000000	          0.28617676	          0.00000000	         -0.00000000	          0.00000000	          0.00000000	         -0.37430293	          0.00000000	
          1.37000000	          0.00000000	         -0.00000000	          0.00000000	         -0.00000000	          0.00000000	         -0.00000000	        -43.30710176	        236.02514278	          4.74362873	         -0.25286340	          0.00000000	          0.32317156	          0.00000000	         -0.00000000	          0.00000000	          0.00000000	          0.01769155	          0.00000000	
          1.37500000	          0.00000000	         -0.00000000	          0.00000000	         -0.00000000	          0.00000000	         -0.00000000	        -43.90972213	        381.89184139	         21.47580095	         -0.25585473	          0.00000000	          0.32109998	          0.00000000	          0.00000000	          0.00000000	          0.00000000	          0.42370415	          0.00000000	
          1.38000000	         -0.00000000	         -0.00000000	          0.00000000	          0.00000000	          0.00000000	          0.00000000	        -33.93205210	        438.26952926	         37.89584304	         -0.25109437	          0.00000000	          0.31623777	          0.00000000	          0.00000000	          0.00000000	          0.00000000	          0.53666857	          0.00000000	
          1.38500000	         -0.00000000	          0.00000000	         -0.00000000	          0.00000000	          0.00000000	          0.00000000	        -29.92793950	        460.67275814	         44.00654662	         -0.24790708	          0.00000000	          0.31499070	          0.00000000	          0.00000000	          0.00000000	          0.00000000	          0.44820199	          0.00000000	
          1.39000000	          0.00000000	          0.00000000	         -0.00000000	          0.00000000	          0.00000000	          0.00000000	        -38.34373732	        496.71334068	         40.21896804	         -0.24601000	          0.00000000	          0.31558805	          0.00000000	         -0.00000000	          0.00000000	          0.00000000	          0.23248263	          0.00000000	
          1.39500000	          0.00000000	          0.00000000	         -0.00000000	         -0.00000000	          0.00000000	         -0.00000000	        -59.81722237	        521.69405101	         32.68927776	         -0.24413226	          0.00000000	          0.31634917	          0.00000000	         -0.00000000	          0.00000000	          0.00000000	          0.06589213	          0.00000000	
          1.40000000	          0.00000000	         -0.00000000	          0.00000000	         -0.00000000	          0.00000000	         -0.00000000	        -86.48896576	        517.75532714	         25.66392097	         -0.24121047	          0.00000000	          0.31702820	          0.00000000	          0.00000000	          0.00000000	          0.00000000	          0.01857862	          0.00000000	
          1.40500000	         -0.00000000	         -0.00000000	          0.00000000	          0.00000000	          0.00000000	          0.00000000	       -105.56279737	        508.41535091	         17.56237035	         -0.23631145	          0.00000000	          0.31817696	          0.00000000	          0.00000000	          0.00000000	          0.00000000	          0.11028555	          0.00000000	
          1.41000000	         -0.00000000	          0.00000000	          0.00000000	          0.00000000	          0.00000000	          0.00000000	       -113.03820949	        527.10305889	          4.46987541	         -0.22939119	          0.00000000	          0.32007523	          0.00000000	          0.00000000	          0.00000000	          0.00000000	          0.55049480	          0.00000000	
          1.41500000	         -0.00000000	          0.00000000	         -0.00000000	          0.00000000	          0.00000000	          0.00000000	       -118.74283642	        578.11341435	        -12.43397986	         -0.22232454	          0.00000000	          0.32210911	          0.00000000	         -0.00000000	          0.00000000	          0.00000000	          1.24102069	          0.00000000	
          1.42000000	          0.00000000	          0.00000000	         -0.00000000	         -0.00000000	          0.00000000	         -0.00000000	       -133.03944674	        630.61837152	        -24.84333938	         -0.21716603	          0.00000000	          0.32374290	          0.00000000	         -0.00000000	          0.00000000	          0.00000000	          1.73460475	          0.00000000	
          1.42500000	          0.00000000	         -0.00000000	          0.00000000	         -0.00000000	          0.00000000	         -0.00000000	       -153.71561777	        662.04576529	        -29.14679993	         -0.21325029	          0.00000000	          0.32453038	          0.00000000	         -0.00000000	          0.00000000	          0.00000000	          1.85247105	          0.00000000	
          1.43000000	          0.00000000	         -0.00000000	          0.00000000	         -0.00000000	          0.00000000	         -0.00000000	       -171.20283701	        684.59947859	        -30.99562480	         -0.20923857	          0.00000000	          0.32464502	          0.00000000	          0.00000000	          0.00000000	          0.00000000	          1.72038798	          0.00000000	
          1.43500000	         -0.00000000	         -0.00000000	          0.00000000	          0.00000000	          0.00000000	          0.00000000	       -181.81099856	        715.64148160	        -33.49668146	         -0.20571104	          0.00000000	          0.32473690	          0.00000000	          0.00000000	          0.00000000	          0.00000000	          1.46928568	          0.00000000	
          1.44000000	         -0.00000000	          0.00000000	         -0.00000000	          0.00000000	          0.00000000	          0.00000000	       -187.39631592	        753.36871007	        -34.85580002	         -0.20341938	          0.00000000	          0.32475267	          0.00000000	          0.00000000	          0.00000000	          0.00000000	          1.27308365	          0.00000000	
          1.44500000	         -0.00000000	          0.00000000	         -0.00000000	          0.00000000	          0.00000000	          0.00000000	       -189.09416584	        790.19761278	        -33.87808662	         -0.20223208	          0.00000000	          0.32467841	          0.00000000	         -0.00000000	          0.00000000	          0.00000000	          1.17216159	          0.00000000	
          1.45000000	          0.00000000	          0.00000000	         -0.00000000	         -0.00000000	          0.00000000	         -0.00000000	       -187.32490350	        826.35944748	        -31.13521384	         -0.20182993	          0.00000000	          0.32462097	          0.00000000	         -0.00000000	          0.00000000	          0.00000000	          1.10696438	          0.00000000	
          1.45500000	          0.00000000	         -0.00000000	          0.00000000	         -0.00000000	          0.00000000	         -0.00000000	       -183.28259184	        862.60216962	        -27.32713115	         -0.20179812	          0.00000000	          0.32433848	          0.00000000	         -0.00000000	          0.00000000	          0.00000000	          1.02165495	          0.00000000	
